<svg width="150" height="31" viewBox="0 0 150 31" fill="none" xmlns="http://www.w3.org/2000/svg">
<g id="Layer_1" clip-path="url(#clip0_5_394)">
<path id="Vector" d="M4.67556 28.7508C5.35916 29.4618 6.10616 30.0992 6.90455 30.668H25.5777C25.8963 30.447 26.2116 30.2157 26.5183 29.9707L26.6399 29.8627C26.9757 29.5269 27.2361 29.1466 27.4109 28.7285C27.5874 28.3088 27.6764 27.8685 27.6764 27.4213C27.6764 26.2443 27.207 25.5076 26.8129 25.0981C26.2647 24.5276 25.5554 24.19 24.7621 24.1215C23.962 24.0547 23.1791 24.2911 22.4184 24.8394C21.4555 25.5504 20.4429 26.1124 19.4064 26.5098C18.4161 26.8902 17.347 27.0838 16.23 27.0838C14.9364 27.0838 13.7063 26.8234 12.5738 26.3111C11.4259 25.7937 10.4014 25.0587 9.52759 24.1301C8.64867 23.1963 7.95479 22.0947 7.46308 20.8543C6.97137 19.6139 6.72123 18.2535 6.72123 16.8109C6.72123 15.3683 6.97137 14.0457 7.46308 12.8052C7.95479 11.5648 8.64867 10.4632 9.52759 9.52944C10.4031 8.59742 11.4328 7.85556 12.5841 7.32444C13.7149 6.80189 14.9399 6.53804 16.23 6.53804C17.6828 6.53804 18.8376 6.71794 19.66 7.07088C20.5286 7.44437 21.3887 7.99777 22.2162 8.71392L22.2727 8.76018C23.0129 9.33584 23.849 9.60483 24.6936 9.53972C25.5108 9.47462 26.2219 9.16623 26.8078 8.62312C27.4503 8.0286 27.7895 7.24392 27.7895 6.35301C27.7895 6.01207 27.7587 5.71053 27.6953 5.43297C27.6148 5.0886 27.464 4.7528 27.2447 4.43584C27.0477 4.15144 26.7872 3.88416 26.472 3.6443C24.9266 2.3799 23.3538 1.45472 21.7947 0.89105C20.2305 0.327379 18.3579 0.0412598 16.2334 0.0412598C13.9462 0.0412598 11.7908 0.483288 9.82399 1.35192C7.87255 2.21542 6.14042 3.425 4.67556 4.9464C3.21241 6.46609 2.05423 8.25647 1.23699 10.2696C0.416329 12.2878 0 14.4877 0 16.8109C0 19.1341 0.416329 21.3768 1.23528 23.4054C2.05423 25.4339 3.21241 27.2311 4.67556 28.7508Z" fill="#F2E3D0"/>
<path id="Vector_2" d="M51.5699 30.6267C52.4454 29.9071 53.1855 29.0625 53.7783 28.0945C54.7583 26.496 55.2552 24.6473 55.2552 22.5982C55.2552 20.2853 54.6161 18.3613 53.3551 16.8793C52.7212 16.134 51.9794 15.5138 51.1364 15.0204C51.5168 14.64 51.8577 14.2254 52.1576 13.78C53.0039 12.5173 53.434 11.0884 53.434 9.53272C53.434 7.68408 52.9731 6.01363 52.065 4.5659C51.1639 3.13188 49.9149 1.99597 48.3523 1.19244C46.8172 0.402614 45.032 0.00341797 43.048 0.00341797H33.7808C32.8351 0.00341797 31.987 0.339222 31.3274 0.978278C30.6541 1.62933 30.2994 2.49625 30.2994 3.48653V29.7324C30.2994 30.0425 30.3406 30.3406 30.4125 30.6267H51.5699ZM37.2622 6.65269H43.048C44.2045 6.65269 45.1022 6.90454 45.791 7.42366C46.1473 7.69265 46.6236 8.20492 46.6236 9.53101C46.6236 10.8571 46.1439 11.3865 45.7824 11.6641C45.0954 12.1917 44.201 12.447 43.0497 12.447H37.2639V6.65269H37.2622ZM37.2622 19.0997H43.8618C44.8504 19.0997 45.719 19.2522 46.442 19.5503C47.0948 19.821 47.5848 20.1962 47.9429 20.6965C48.277 21.1642 48.4466 21.8033 48.4466 22.5982C48.4466 23.4943 48.265 24.2327 47.9052 24.7895C47.5385 25.3566 47.0451 25.7764 46.3941 26.0745C45.6865 26.3983 44.835 26.5628 43.8618 26.5628H37.2622V19.1014V19.0997Z" fill="#F2E3D0"/>
<path id="Vector_3" d="M63.4018 30.6267C63.5475 30.2361 63.6246 29.8146 63.6246 29.3726V3.43857C63.6246 2.47056 63.2871 1.62077 62.6446 0.978287C62.0038 0.337518 61.1523 0 60.186 0C59.2197 0 58.4145 0.332378 57.7617 0.962867C57.097 1.60535 56.7457 2.46199 56.7457 3.44028V29.3709C56.7457 29.8146 56.8245 30.2361 56.9736 30.625H63.4001L63.4018 30.6267Z" fill="#F2E3D0"/>
<path id="Vector_4" d="M69.1209 6.66983H76.0477V29.8061C76.0477 30.0905 76.082 30.3629 76.142 30.6267H82.9317C82.9917 30.3629 83.0277 30.0888 83.0277 29.8061V6.66983H89.9168C90.8488 6.66983 91.6712 6.33916 92.2966 5.71553C92.9202 5.09018 93.2509 4.2678 93.2509 3.33577C93.2509 2.40374 92.9202 1.58136 92.2966 0.956014C91.6729 0.330664 90.8488 0 89.9168 0H69.1209C68.1889 0 67.3665 0.330664 66.7412 0.954301C66.1175 1.57794 65.7869 2.40203 65.7869 3.33406C65.7869 4.26609 66.1175 5.08846 66.7412 5.71381C67.3665 6.33745 68.1889 6.66811 69.1209 6.66811V6.66983Z" fill="#F2E3D0"/>
<path id="Vector_5" d="M93.0674 30.6267L100.798 12.0256L108.347 30.6267H115.131C115.253 30.0322 115.236 29.3058 114.907 28.4697L103.937 2.28895C103.383 0.834371 102.192 0 100.664 0C99.1359 0 98.0291 0.800105 97.4021 2.26325L86.485 28.3309C86.1406 29.1053 86.067 29.8832 86.2486 30.6267H93.064H93.0674Z" fill="#F2E3D0"/>
<path id="Vector_6" d="M119.899 30.5822H144.548C147.908 27.3492 149.998 22.8056 149.998 17.7754C149.998 7.95822 142.04 0 132.223 0C122.406 0 114.448 7.95822 114.448 17.7754C114.448 22.8073 116.538 27.3492 119.898 30.5822H119.899Z" fill="#F2E3D0"/>
</g>
<defs>
<clipPath id="clip0_5_394">
<rect width="150" height="30.6678" fill="white"/>
</clipPath>
</defs>
</svg>
